<svg xmlns="http://www.w3.org/2000/svg" width="22" height="21" viewBox="0 0 22 21">
  <g id="Chat" transform="translate(0 0)">
    <path id="Shape" d="M.366,21a.368.368,0,0,1-.259-.628c.842-.846,1.425-2.638,1.642-5.044A9.236,9.236,0,0,1,0,9.948C0,4.463,4.934,0,11,0S22,4.463,22,9.948s-4.934,9.947-11,9.947a11.9,11.9,0,0,1-4.489-.865A19.407,19.407,0,0,1,.418,21,.328.328,0,0,1,.366,21ZM16.133,8.474A1.474,1.474,0,1,0,17.6,9.948,1.472,1.472,0,0,0,16.133,8.474ZM11,8.474a1.474,1.474,0,1,0,1.467,1.474A1.472,1.472,0,0,0,11,8.474Zm-5.133,0A1.474,1.474,0,1,0,7.333,9.948,1.472,1.472,0,0,0,5.867,8.474Z" fill="#17181a"/>
  </g>
</svg>
