<svg xmlns="http://www.w3.org/2000/svg" width="20.444" height="20.444" viewBox="0 0 20.444 20.444">
  <path id="circle-question-regular" d="M10.222,0A10.222,10.222,0,1,0,20.444,10.222,10.221,10.221,0,0,0,10.222,0Zm0,18.528a8.306,8.306,0,1,1,8.306-8.306A8.315,8.315,0,0,1,10.222,18.528Zm0-5.111a1.261,1.261,0,0,0-1.278,1.278,1.24,1.24,0,0,0,1.278,1.278,1.278,1.278,0,1,0,0-2.556Zm1.322-8.306H9.5a2.778,2.778,0,0,0-2.8,2.8.958.958,0,0,0,1.917,0,.856.856,0,0,1,.843-.878h2.04a.927.927,0,0,1,.95.878.8.8,0,0,1-.439.723L9.743,10.023a.985.985,0,0,0-.479.839V11.5a.958.958,0,1,0,1.917,0v-.08l1.8-1.118a2.849,2.849,0,0,0,1.358-2.4A2.734,2.734,0,0,0,11.544,5.111Z" fill="#fff"/>
</svg>
