<svg xmlns="http://www.w3.org/2000/svg" width="17.943" height="22" viewBox="0 0 17.943 22">
  <g id="Profile" transform="translate(-1.64)">
    <path id="Path" d="M4.7,11c2.594,0,4.7-2.462,4.7-5.5S8.7,0,4.7,0,0,2.462,0,5.5,2.1,11,4.7,11Z" transform="translate(5.91)" fill="#17181a"/>
    <path id="Path-2" data-name="Path" d="M.051.1c0-.195,0-.055,0,0Z" transform="translate(1.597 18.811)" fill="#17181a"/>
    <path id="Path-3" data-name="Path" d="M.049.165c0-.05,0-.344,0,0Z" transform="translate(19.532 18.775)" fill="#17181a"/>
    <path id="Path-4" data-name="Path" d="M17.925,7.154C17.837,2.272,17.112.881,11.567,0a3.529,3.529,0,0,1-2.6.875A3.53,3.53,0,0,1,6.368,0C.883.871.115,2.242.014,7,.005,7.384,0,7.4,0,7.359c0,.084,0,.241,0,.513,0,0,1.32,2.342,8.967,2.342s8.967-2.342,8.967-2.342c0-.175,0-.3,0-.379A2.769,2.769,0,0,1,17.925,7.154Z" transform="translate(1.64 11.786)" fill="#17181a"/>
  </g>
</svg>
