<svg xmlns="http://www.w3.org/2000/svg" width="17.293" height="18.25" viewBox="0 0 17.293 18.25">
  <g id="Icon_feather-share-2" data-name="Icon feather-share-2" transform="translate(-3.7 -2.2)">
    <path id="Path_2991" data-name="Path 2991" d="M27.5,5.5A2.5,2.5,0,1,1,25,3a2.5,2.5,0,0,1,2.5,2.5Z" transform="translate(-7.303 0)" fill="none" stroke="#fff" stroke-linecap="round" stroke-linejoin="round" stroke-width="1.6"/>
    <path id="Path_2992" data-name="Path 2992" d="M9.5,16A2.5,2.5,0,1,1,7,13.5,2.5,2.5,0,0,1,9.5,16Z" transform="translate(0 -4.672)" fill="none" stroke="#fff" stroke-linecap="round" stroke-linejoin="round" stroke-width="1.6"/>
    <path id="Path_2993" data-name="Path 2993" d="M27.5,26.5A2.5,2.5,0,1,1,25,24,2.5,2.5,0,0,1,27.5,26.5Z" transform="translate(-7.303 -9.345)" fill="none" stroke="#fff" stroke-linecap="round" stroke-linejoin="round" stroke-width="1.6"/>
    <path id="Path_2994" data-name="Path 2994" d="M12.885,20.265l5.686,3.313" transform="translate(-3.377 -7.683)" fill="none" stroke="#fff" stroke-linecap="round" stroke-linejoin="round" stroke-width="1.6"/>
    <path id="Path_2995" data-name="Path 2995" d="M18.563,9.765l-5.678,3.313" transform="translate(-3.378 -3.01)" fill="none" stroke="#fff" stroke-linecap="round" stroke-linejoin="round" stroke-width="1.6"/>
  </g>
</svg>
