<svg xmlns="http://www.w3.org/2000/svg" width="250.351" height="218.813" viewBox="0 0 250.351 218.813">
  <g id="mobile_otp" transform="translate(-62.325 -90.221)">
    <g id="Group_2227" data-name="Group 2227" transform="translate(19.876 22)">
      <g id="Group_2224" data-name="Group 2224" transform="translate(45.677 61.221)" opacity="0.601">
        <path id="Path_2888" data-name="Path 2888" d="M858.932,467.542c-3.814-28.716-12.335-31.219-18.887-45.713-5.965-13.184-10.776-34.753,6.059-50.173,26.15-23.971,58.221.558,58.221.558s50.82,32.891,59.7,34.563,30.59,18.4,57.727-1.672,50.327-18.4,57.728-3.345-9.375,58.535-13.322,67.455,1.974,36.793,8.388,47.943,26.643,45.713-16.776,44.6a72.419,72.419,0,0,0-7.143,1.71L885.6,567.957s-48.263-6.631-39.989-58.047C852.518,466.985,860.413,478.692,858.932,467.542Z" transform="translate(-837.746 -354.145)" fill="#e5e5e5"/>
      </g>
      <g id="_89" data-name="89" transform="translate(33 112.305)">
        <path id="Path_2890" data-name="Path 2890" d="M352.09,290.741c.918,16.922-32.166,51.331-72.944,38.6-18.965-5.924-17.359-15.757-31.78-28.715-8.6-7.723-20.947-13.563-24.382-24.79-2.967-9.69-1.148-20.105,4-26.88,11.571-15.235,34.929-25.668,57.945-1.663S349.717,247.1,352.09,290.741Z" transform="translate(-149.806 -157.589)" fill="#fff"/>
        <path id="Path_2891" data-name="Path 2891" d="M464.189,124.689c-2.719,4.853-8.675,5.52-18.216,4.6-7.176-.695-13.719-1.233-20.9-5.145a40.179,40.179,0,0,1-11.9-10.035c-3.145-3.9-7.534-8.342-5.382-12.759,2.957-6.068,20.057-11.178,36.661-2.821C462.7,107.709,466.849,119.946,464.189,124.689Z" transform="translate(-275.345 -63.658)" fill="#fff"/>
        <path id="Path_2892" data-name="Path 2892" d="M379.494,89.926q-.265-.1-.536-.173c-.06-.017-.119-.036-.179-.051q-.193-.049-.386-.093l-.186-.037q-.194-.036-.39-.065l-.229-.029q-.215-.025-.431-.038c-.046,0-.093-.007-.139-.009q-.2-.01-.409-.01H313.753a8.239,8.239,0,0,0-1.291.1q-.209.032-.417.074a8.491,8.491,0,0,0-6.768,8.323V226.7a8.5,8.5,0,0,0,5.592,7.991l.044.015c.162.057.326.11.492.157.06.017.119.035.18.051l.191.047.2.045c.062.014.124.025.186.037q.194.036.389.065c.075.011.152.02.229.029q.215.025.431.038c.046,0,.093.007.139.009.135.006.272.01.409.01h62.857a8.488,8.488,0,0,0,8.476-8.5V97.917A8.5,8.5,0,0,0,379.494,89.926Z" transform="translate(-206.414 -60.462)" fill="#21304d"/>
        <path id="Path_2893" data-name="Path 2893" d="M418.294,497.765a4.886,4.886,0,1,0-4.886-4.886A4.886,4.886,0,0,0,418.294,497.765Z" transform="translate(-279.527 -329.958)" fill="#fff"/>
        <rect id="Rectangle_17607" data-name="Rectangle 17607" width="16.695" height="1.629" rx="0.814" transform="translate(130.624 35.473)" fill="#fff"/>
        <path id="Path_2894" data-name="Path 2894" d="M627.832,214.986c-.843-3.367-8.8-8.285-13.059-5.32-1.306-6.414-2.528-10.415-6.795-13.575s-11.386.97-12.53,9.622c-1.143-3.556-6.957-8.35-11.627-4.308-4.321,3.74-4.754,10.007-4.3,13.575h48.314Z" transform="translate(-391.747 -131.873)" fill="#fff"/>
        <path id="Path_2895" data-name="Path 2895" d="M172,136.8c.566-2.268,5.919-5.58,8.779-3.583.878-4.32,1.7-7.014,4.568-9.142s7.655.654,8.423,6.48c.769-2.4,4.677-5.623,7.817-2.9,2.9,2.519,3.2,6.739,2.893,9.143H172Z" transform="translate(-116.298 -83.414)" fill="#fff"/>
        <circle id="Ellipse_224" data-name="Ellipse 224" cx="1.995" cy="1.995" r="1.995" transform="translate(131.706 68.972)" fill="#fff"/>
        <path id="Path_2896" data-name="Path 2896" d="M440.861,230.087a14.485,14.485,0,0,0-2.074-.168,14.192,14.192,0,0,0-10.909,5.02,14.653,14.653,0,0,0-3.308,11.687" transform="translate(-286.961 -155.46)" fill="none" stroke="#fff" stroke-linecap="round" stroke-linejoin="round" stroke-width="10.395"/>
        <path id="Path_2897" data-name="Path 2897" d="M410.371,199.8h0a16.084,16.084,0,0,1-16.083,16.084h0A16.084,16.084,0,0,1,378.2,199.8h0a16.084,16.084,0,0,1,16.084-16.084h0A16.084,16.084,0,0,1,410.371,199.8Z" transform="translate(-255.723 -124.221)" fill="none" stroke="#fff" stroke-linecap="round" stroke-linejoin="round" stroke-width="10.395"/>
        <rect id="Rectangle_17608" data-name="Rectangle 17608" width="45.197" height="3.258" rx="1.629" transform="translate(117.186 123.425)" fill="#fff"/>
        <rect id="Rectangle_17609" data-name="Rectangle 17609" width="41.94" height="3.258" rx="1.629" transform="translate(120.444 113.652)" fill="#fff"/>
        <rect id="Rectangle_17610" data-name="Rectangle 17610" width="47.233" height="3.258" rx="1.629" transform="translate(115.151 103.88)" fill="#fff"/>
        <circle id="Ellipse_225" data-name="Ellipse 225" cx="2.443" cy="2.443" r="2.443" transform="translate(83.39 112.838)" fill="#e1e4e5"/>
        <circle id="Ellipse_226" data-name="Ellipse 226" cx="1.425" cy="1.425" r="1.425" transform="translate(194.144 124.646) rotate(180)" fill="#6697f6"/>
        <circle id="Ellipse_227" data-name="Ellipse 227" cx="1.832" cy="1.832" r="1.832" transform="translate(68.11 83.007) rotate(180)" fill="#6697f6"/>
        <circle id="Ellipse_228" data-name="Ellipse 228" cx="1.832" cy="1.832" r="1.832" transform="translate(92.075 72.644) rotate(180)" fill="#e1e4e5"/>
        <circle id="Ellipse_229" data-name="Ellipse 229" cx="1.832" cy="1.832" r="1.832" transform="translate(189.665 144.191)" fill="#e1e4e5"/>
        <circle id="Ellipse_230" data-name="Ellipse 230" cx="1.832" cy="1.832" r="1.832" transform="translate(86.791 152.208)" fill="#e1e4e5"/>
        <circle id="Ellipse_231" data-name="Ellipse 231" cx="1.832" cy="1.832" r="1.832" transform="translate(185.594 48.91)" fill="#e1e4e5"/>
        <path id="Path_2898" data-name="Path 2898" d="M593.543,303.836l-2.85-2.85,2.85-2.85,2.85,2.85Z" transform="translate(-399.399 -201.585)" fill="none" stroke="#e1e4e5" stroke-linecap="round" stroke-linejoin="round" stroke-width="5.029"/>
        <path id="Path_2899" data-name="Path 2899" d="M647.015,278.5c-3.03.718-6.234-1.852-6.234-1.852s1.71-3.731,4.74-4.447,6.233,1.849,6.233,1.849S650.044,277.781,647.015,278.5Z" transform="translate(-433.266 -183.964)" fill="#fff"/>
        <path id="Path_2900" data-name="Path 2900" d="M637.01,351.04c2.685,1.849,6.788.557,6.788.557s-.254-4.291-2.941-6.139-6.786-.558-6.786-.558S634.325,349.191,637.01,351.04Z" transform="translate(-428.729 -232.909)" fill="#fff"/>
        <path id="Path_2901" data-name="Path 2901" d="M141.615,273.654c5.934,6.04,17.031,4.766,17.031,4.766s1.468-11.066-4.471-17.1-17.025-4.77-17.025-4.77S135.681,267.615,141.615,273.654Z" transform="translate(-92.625 -173.391)" fill="#fff"/>
        <ellipse id="Ellipse_232" data-name="Ellipse 232" cx="4.41" cy="4.218" rx="4.41" ry="4.218" transform="translate(228.713 111.42) rotate(180)" fill="#21304d"/>
        <ellipse id="Ellipse_233" data-name="Ellipse 233" cx="5.944" cy="5.752" rx="5.944" ry="5.752" transform="translate(88.074 148.336) rotate(180)" fill="#21304d"/>
        <circle id="Ellipse_234" data-name="Ellipse 234" cx="4.329" cy="4.329" r="4.329" transform="translate(82.993 68.997) rotate(180)" fill="#21304d"/>
        <circle id="Ellipse_235" data-name="Ellipse 235" cx="4.027" cy="4.027" r="4.027" transform="translate(201.066 79.624) rotate(180)" fill="#21304d"/>
        <circle id="Ellipse_236" data-name="Ellipse 236" cx="3.621" cy="3.621" r="3.621" transform="translate(210.942 146.497) rotate(180)" fill="#e1e4e5"/>
        <circle id="Ellipse_237" data-name="Ellipse 237" cx="3.809" cy="3.809" r="3.809" transform="translate(67.854 123.232) rotate(180)" fill="#e1e4e5"/>
        <circle id="Ellipse_238" data-name="Ellipse 238" cx="1.877" cy="1.877" r="1.877" transform="translate(215.549 74.676) rotate(180)" fill="#e1e4e5"/>
        <circle id="Ellipse_239" data-name="Ellipse 239" cx="2.864" cy="2.864" r="2.864" transform="translate(205.67 53.661) rotate(180)" fill="#e1e4e5"/>
        <circle id="Ellipse_240" data-name="Ellipse 240" cx="1.874" cy="1.874" r="1.874" transform="matrix(0.259, 0.966, -0.966, 0.259, 82.02, 91.578)" fill="#e1e4e5"/>
        <circle id="Ellipse_241" data-name="Ellipse 241" cx="1.677" cy="1.677" r="1.677" transform="translate(57.019 66.41) rotate(180)" fill="#e1e4e5"/>
        <ellipse id="Ellipse_242" data-name="Ellipse 242" cx="1.917" cy="1.534" rx="1.917" ry="1.534" transform="translate(223.727 131.959) rotate(180)" fill="#e1e4e5"/>
        <circle id="Ellipse_243" data-name="Ellipse 243" cx="3.899" cy="3.899" r="3.899" transform="matrix(0.259, 0.966, -0.966, 0.259, 172.989, 33.039)" fill="#e1e4e5"/>
        <path id="Path_2902" data-name="Path 2902" d="M413.908,104h.05c.3,4.208,3.427,4.273,3.427,4.273s-3.451.068-3.451,4.931c0-4.863-3.452-4.931-3.452-4.931S413.611,108.212,413.908,104ZM283.018,70h.059c.348,5.035,4.02,5.113,4.02,5.113s-4.048.08-4.048,5.9c0-5.818-4.048-5.9-4.048-5.9S282.67,75.035,283.018,70Z" transform="translate(-188.647 -47.331)" fill="#e1e4e5"/>
      </g>
    </g>
  </g>
</svg>
