<svg xmlns="http://www.w3.org/2000/svg" width="106.027" height="106.027" viewBox="0 0 106.027 106.027">
  <path id="user-circle-solid" d="M53.014,8a53.014,53.014,0,1,0,53.014,53.014A53,53,0,0,0,53.014,8Zm0,20.521A18.811,18.811,0,1,1,34.2,47.333,18.812,18.812,0,0,1,53.014,28.521Zm0,73.535A40.963,40.963,0,0,1,21.7,87.478,23.833,23.833,0,0,1,42.753,74.695a5.23,5.23,0,0,1,1.518.235A28.3,28.3,0,0,0,53.014,76.4a28.2,28.2,0,0,0,8.743-1.475,5.23,5.23,0,0,1,1.518-.235A23.833,23.833,0,0,1,84.33,87.478,40.963,40.963,0,0,1,53.014,102.057Z" transform="translate(0 -8)" fill="#e1e4e5"/>
</svg>
