<svg xmlns="http://www.w3.org/2000/svg" width="23" height="23.005" viewBox="0 0 23 23.005">
  <path id="pen-to-square-regular" d="M22.268,2.212,20.794.737a2.52,2.52,0,0,0-3.562,0L7.526,10.447a2.262,2.262,0,0,0-.678,1.227L5.765,16.5a.624.624,0,0,0,.575.755.639.639,0,0,0,.126-.013s3.326-.706,4.826-1.059a2.473,2.473,0,0,0,1.189-.665l9.75-9.75A2.481,2.481,0,0,0,22.268,2.212Zm-1.523,2.03-9.75,9.75a.313.313,0,0,1-.157.09c-.616.145-1.557.353-2.44.545l.558-2.48a.318.318,0,0,1,.094-.173l9.71-9.71a.341.341,0,0,1,.252-.108.353.353,0,0,1,.254.105l1.475,1.475A.352.352,0,0,1,20.745,4.242Zm-1.694,8.7a1.079,1.079,0,0,0-1.078,1.078V19.77a1.08,1.08,0,0,1-1.078,1.078H3.235A1.08,1.08,0,0,1,2.157,19.77V6.111A1.08,1.08,0,0,1,3.235,5.032h6.47a1.078,1.078,0,1,0,0-2.157H3.195A3.222,3.222,0,0,0,0,6.07V19.73a3.24,3.24,0,0,0,3.195,3.276H16.814a3.2,3.2,0,0,0,3.195-3.235l.121-5.751A1.079,1.079,0,0,0,19.051,12.94Z" fill="#fff"/>
</svg>
