<svg xmlns="http://www.w3.org/2000/svg" width="21.406" height="22" viewBox="0 0 21.406 22">
  <g id="Icon" transform="translate(0 0)">
    <path id="Emojis" d="M10.7,22a10.489,10.489,0,0,1-7.568-3.222,11.217,11.217,0,0,1,0-15.556,10.5,10.5,0,0,1,15.136,0,11.217,11.217,0,0,1,0,15.556A10.489,10.489,0,0,1,10.7,22Zm-6-7.876h0a6.508,6.508,0,0,0,2.239,3.261,6.144,6.144,0,0,0,7.523,0A6.512,6.512,0,0,0,16.7,14.124H4.7ZM15.081,6.5A1.5,1.5,0,1,0,16.54,8,1.482,1.482,0,0,0,15.081,6.5Zm-8.757,0A1.5,1.5,0,1,0,7.784,8,1.482,1.482,0,0,0,6.324,6.5Z" transform="translate(0)" fill="#bfc4d3"/>
  </g>
</svg>
