<svg xmlns="http://www.w3.org/2000/svg" width="11.894" height="13.892" viewBox="0 0 11.894 13.892">
  <path id="Icon_awesome-user" data-name="Icon awesome-user" d="M5.947,6.946a3.436,3.436,0,0,0,3.4-3.473A3.436,3.436,0,0,0,5.947,0a3.436,3.436,0,0,0-3.4,3.473A3.436,3.436,0,0,0,5.947,6.946Zm2.379.868H7.882a4.531,4.531,0,0,1-3.871,0H3.568A3.609,3.609,0,0,0,0,11.461V12.59a1.289,1.289,0,0,0,1.274,1.3h9.345a1.289,1.289,0,0,0,1.274-1.3V11.461A3.609,3.609,0,0,0,8.326,7.814Z" fill="rgba(0,0,0,0.62)"/>
</svg>
