<svg xmlns="http://www.w3.org/2000/svg" width="19.028" height="17.736" viewBox="0 0 19.028 17.736">
  <path id="Icon_zocial-statusnet" data-name="Icon zocial-statusnet" d="M-1.125,7.974A4.952,4.952,0,0,1,.517,4.26,5.376,5.376,0,0,1,2.873,2.93a5.047,5.047,0,0,1,2.7.027A5.258,5.258,0,0,1,8,4.455a4.678,4.678,0,0,1,1.1,1.9A5.773,5.773,0,0,1,9.368,8.4a5.621,5.621,0,0,1-.415,1.818,2.258,2.258,0,0,0-.053,1.65,6.159,6.159,0,0,0,.706,1.569A13.745,13.745,0,0,0,10.5,14.65c.311.378.468.574.468.586l-.194-.16q-.177-.177-.379-.363c-.135-.124-.317-.275-.547-.452s-.453-.337-.671-.479-.468-.289-.75-.443a3.57,3.57,0,0,0-.794-.328,4.676,4.676,0,0,0-.785-.133,1.435,1.435,0,0,0-.75.124,5.051,5.051,0,0,1-1.827.355,5.5,5.5,0,0,1-2.065-.39A4.647,4.647,0,0,1,.392,11.743,5.332,5.332,0,0,1-1.125,7.974ZM1.2,7.629A2.9,2.9,0,0,0,1.8,9.836a2.851,2.851,0,0,0,1.968,1.143,2.838,2.838,0,0,0,2.189-.593,2.883,2.883,0,0,0,1.13-1.977A2.887,2.887,0,0,0,6.5,6.21,2.832,2.832,0,0,0,4.541,5.075a2.882,2.882,0,0,0-2.2.585A2.839,2.839,0,0,0,1.2,7.629ZM9.642,2.415A2.734,2.734,0,0,1,10.949.864,2.414,2.414,0,0,1,12.943.713,2.508,2.508,0,0,1,14.47,1.99a2.567,2.567,0,0,1,.15,2.057,3,3,0,0,1-2.012,1.844,2.832,2.832,0,0,0-.98.594,3.8,3.8,0,0,0-.609.674q-.176.275-.406.718a3.361,3.361,0,0,0-.424-2.819A2.892,2.892,0,0,1,9.642,2.415Zm.671,8.777a3.94,3.94,0,0,1,1.112-2.748,3.574,3.574,0,0,1,2.683-1.117A3.763,3.763,0,0,1,17.9,11.193a4.337,4.337,0,0,1-1.942,3.458,4.158,4.158,0,0,0-1.094,1.258,5.163,5.163,0,0,0-.539,1.206q-.115.461-.22,1.188a10.349,10.349,0,0,0-.177-1.188,4.834,4.834,0,0,0-.53-1.232,4.234,4.234,0,0,0-1.147-1.3A4.159,4.159,0,0,1,10.313,11.193Zm.671-8.369a1.226,1.226,0,0,0,.009.966,1.249,1.249,0,0,0,1.633.683A1.181,1.181,0,0,0,13.3,3.8a1.276,1.276,0,0,0,0-.975,1.183,1.183,0,0,0-.671-.674,1.238,1.238,0,0,0-.962,0A1.179,1.179,0,0,0,10.984,2.823Zm1.174,9.123a2.074,2.074,0,0,0,1.156,1.161,2.018,2.018,0,0,0,1.624-.009,2.073,2.073,0,0,0,1.147-1.162,2.048,2.048,0,0,0,0-1.622,2.108,2.108,0,0,0-1.147-1.161,2.117,2.117,0,0,0-2.771,1.153A2.115,2.115,0,0,0,12.157,11.946Z" transform="translate(1.125 -0.567)" fill="#5d5d5d"/>
</svg>
