<svg xmlns="http://www.w3.org/2000/svg" width="15.788" height="21.051" viewBox="0 0 15.788 21.051">
  <path id="file-lines-regular" d="M15.019,3.839,11.951.77A2.644,2.644,0,0,0,10.09,0H2.631A2.631,2.631,0,0,0,0,2.631V18.419a2.631,2.631,0,0,0,2.631,2.631H13.157a2.639,2.639,0,0,0,2.631-2.631V5.7A2.633,2.633,0,0,0,15.019,3.839Zm-1.2,14.58a.658.658,0,0,1-.658.658H2.632a.658.658,0,0,1-.658-.658V2.637a.658.658,0,0,1,.658-.658H9.21V5.263a1.316,1.316,0,0,0,1.316,1.316h3.252V18.419ZM3.947,11.512a.987.987,0,0,0,.987.987h5.921a.987.987,0,0,0,0-1.974H4.934A.99.99,0,0,0,3.947,11.512Zm6.907,2.96H4.934a.987.987,0,0,0,0,1.974h5.921a.987.987,0,0,0,0-1.974Z" transform="translate(0 0)" fill="#fff"/>
</svg>
